<?xml version="1.0" standalone="no"?>
<!DOCTYPE svg PUBLIC "-//W3C//DTD SVG 20010904//EN"
 "http://www.w3.org/TR/2001/REC-SVG-20010904/DTD/svg10.dtd">
<svg version="1.0" xmlns="http://www.w3.org/2000/svg"
 width="700.000000pt" height="700.000000pt" viewBox="0 0 700.000000 700.000000"
 preserveAspectRatio="xMidYMid meet">
<metadata>
Created by potrace 1.14, written by Peter Selinger 2001-2017
</metadata>
<g transform="translate(0.000000,700.000000) scale(0.100000,-0.100000)"
fill="#000000" stroke="none">
<path d="M2508 5095 c-2 -1 -28 -5 -58 -9 -244 -28 -478 -114 -678 -249 -99
-67 -122 -86 -207 -172 -83 -83 -107 -138 -104 -233 9 -252 317 -369 499 -190
51 50 141 117 203 153 56 31 207 92 230 93 4 0 31 6 61 12 64 13 209 17 291 7
186 -22 391 -118 525 -247 154 -148 285 -240 452 -320 225 -106 406 -145 668
-144 130 0 156 2 265 23 119 22 194 44 296 86 232 94 507 297 561 414 91 195
-50 416 -263 414 -84 0 -153 -31 -229 -103 -138 -129 -326 -219 -515 -246 -72
-10 -182 -11 -240 -2 -27 4 -65 10 -84 13 -51 8 -175 52 -240 85 -72 36 -176
114 -256 191 -33 32 -78 72 -100 89 -50 40 -182 130 -191 130 -3 0 -18 9 -32
19 -73 51 -346 148 -469 166 -23 3 -57 8 -75 11 -35 5 -305 13 -310 9z"/>
<path d="M2460 3923 c-274 -26 -589 -159 -807 -341 -158 -133 -188 -181 -188
-307 0 -67 5 -88 27 -131 58 -111 186 -174 308 -152 66 12 98 30 175 99 80 70
127 103 205 146 67 35 189 81 239 89 20 3 56 10 81 14 55 11 237 6 307 -9 188
-38 330 -115 499 -272 126 -116 257 -207 392 -274 93 -46 224 -96 287 -110 11
-2 52 -11 90 -20 143 -32 411 -37 545 -10 14 3 39 8 55 10 58 11 190 48 203
58 6 5 12 7 12 4 0 -11 162 63 245 110 112 64 217 144 300 227 57 58 74 82 89
128 46 146 -16 293 -152 360 -37 18 -64 23 -122 23 -88 0 -139 -21 -210 -85
-131 -119 -276 -201 -425 -241 -124 -34 -392 -32 -484 2 -14 6 -28 11 -31 11
-3 0 -15 4 -28 9 -13 5 -28 9 -33 9 -20 0 -155 73 -214 115 -33 24 -90 72
-127 107 -98 93 -114 106 -218 177 -173 118 -390 205 -598 240 -98 16 -320 24
-422 14z"/>
<path d="M2547 2764 c-1 -1 -33 -4 -72 -7 -274 -24 -556 -136 -784 -312 -185
-142 -241 -230 -228 -363 21 -235 305 -344 483 -186 89 80 111 98 159 129 174
113 364 163 568 152 124 -7 151 -12 245 -43 145 -48 259 -119 387 -239 235
-222 458 -337 790 -410 94 -21 367 -28 488 -13 314 40 649 206 869 432 152
157 95 413 -107 481 -120 40 -207 15 -337 -98 -181 -158 -370 -234 -598 -242
-264 -8 -498 79 -687 258 -324 307 -661 451 -1081 461 -51 1 -94 1 -95 0z"/>
</g>
</svg>
